<?xml version="1.0" standalone="no"?>
<!DOCTYPE svg PUBLIC "-//W3C//DTD SVG 20010904//EN"
 "http://www.w3.org/TR/2001/REC-SVG-20010904/DTD/svg10.dtd">
<svg version="1.0" xmlns="http://www.w3.org/2000/svg"
 width="300.000000pt" height="235.000000pt" viewBox="0 0 300.000000 235.000000"
 preserveAspectRatio="xMidYMid meet">
<metadata>
Created by potrace 1.10, written by Peter Selinger 2001-2011
</metadata>
<g transform="translate(0.000000,235.000000) scale(0.100000,-0.100000)"
fill="#000000" stroke="none">
<path d="M2060 2212 c-17 -14 -21 -25 -17 -43 8 -32 253 -404 302 -457 71 -79
141 -43 95 49 -33 65 -256 393 -294 434 -38 40 -54 43 -86 17z m87 -79 c38
-49 225 -328 246 -370 21 -40 7 -50 -25 -18 -39 39 -278 401 -278 420 0 17 31
-1 57 -32z"/>
<path d="M1658 1792 c-264 -167 -358 -232 -358 -246 0 -19 57 -129 94 -178 11
-17 33 -30 53 -34 18 -3 49 -19 69 -35 57 -45 114 -41 196 14 71 47 391 303
461 369 l46 43 -97 147 c-53 82 -99 148 -102 147 -3 0 -166 -103 -362 -227z
m359 160 c17 -11 143 -204 143 -219 0 -6 -28 -36 -62 -66 -97 -83 -368 -297
-417 -329 -53 -33 -101 -36 -141 -8 -15 11 -47 28 -71 39 -36 15 -51 31 -81
82 -21 35 -38 71 -38 81 0 10 21 31 48 48 154 99 598 379 602 379 3 1 11 -3
17 -7z"/>
<path d="M1140 1467 c-36 -22 -150 -96 -253 -164 -168 -111 -187 -126 -181
-146 18 -63 68 -168 89 -191 22 -24 31 -26 117 -28 51 -1 114 -2 141 -3 l47
-2 0 166 0 166 111 2 c62 2 115 5 118 8 6 7 -109 235 -118 234 -3 0 -35 -19
-71 -42z m97 -83 c18 -32 33 -62 33 -65 0 -3 -37 -9 -82 -12 -120 -10 -122
-13 -128 -185 l-5 -137 -95 -3 c-52 -2 -104 -1 -115 2 -23 6 -56 59 -80 126
-12 35 -13 46 -3 58 7 9 83 61 168 117 229 150 254 165 265 162 6 -2 24 -30
42 -63z"/>
<path d="M1181 1015 l4 -165 -168 0 -168 0 3 -165 3 -165 -167 0 -168 0 0
-125 0 -125 545 0 c300 0 545 2 545 4 0 2 -11 28 -25 58 -32 67 -33 141 -4
203 25 52 96 121 136 131 15 4 31 12 35 18 4 6 8 120 8 254 l0 242 -291 0
-291 0 3 -165z m537 -87 l2 -207 -59 -40 c-64 -44 -115 -111 -132 -175 -11
-40 -8 -134 6 -167 4 -12 -1 -18 -17 -23 -13 -3 -228 -6 -479 -6 -341 0 -458
3 -467 12 -16 16 -16 130 0 146 8 8 54 12 142 12 178 0 176 -2 176 171 0 70 3
134 6 143 5 14 27 16 139 16 119 0 135 2 159 21 26 20 26 22 26 149 0 71 3
136 6 144 6 15 34 16 248 14 l241 -3 3 -207z"/>
<path d="M539 1087 c-139 -88 -163 -121 -163 -216 1 -79 32 -157 90 -228 l35
-43 135 0 134 0 0 114 c0 107 -2 116 -30 170 -75 141 -87 164 -102 204 -9 23
-20 42 -25 41 -4 0 -38 -19 -74 -42z m127 -146 c63 -120 64 -124 64 -201 0
-100 -4 -103 -119 -99 -104 5 -113 10 -161 101 -42 79 -47 166 -12 215 24 33
139 116 154 111 6 -2 39 -59 74 -127z"/>
<path d="M2155 914 c-48 -26 -67 -46 -87 -91 -30 -68 -1 -153 53 -153 11 0 37
-10 59 -22 l38 -22 49 21 c26 12 57 25 69 28 44 12 59 106 25 161 -47 77 -142
113 -206 78z m134 -54 c31 -22 55 -75 49 -112 -3 -25 -75 -67 -114 -68 -39 0
-114 40 -125 67 -22 58 62 150 129 139 18 -2 45 -14 61 -26z"/>
<path d="M287 619 c-32 -21 -89 -48 -127 -59 -38 -11 -71 -24 -74 -29 -3 -4
-3 -24 1 -44 5 -33 9 -37 35 -37 38 0 171 52 231 90 l47 30 -20 39 c-11 22
-23 42 -28 45 -4 2 -34 -13 -65 -35z m33 -49 c-30 -23 -143 -70 -168 -70 -9 0
13 13 49 29 37 15 77 35 90 45 34 24 60 21 29 -4z"/>
<path d="M1739 580 c-108 -57 -129 -177 -45 -259 33 -32 83 -49 143 -51 l22 0
-26 56 c-33 72 -35 152 -5 211 12 23 22 47 22 53 0 17 -72 10 -111 -10z m36
-77 c-9 -59 -9 -55 0 -125 4 -32 4 -58 1 -58 -24 0 -66 35 -81 66 -23 50 -13
95 31 133 49 43 58 40 49 -16z"/>
<path d="M1995 588 c-99 -54 -132 -153 -79 -235 48 -73 122 -98 196 -65 61 27
91 71 96 141 3 46 0 62 -20 91 -44 65 -139 98 -193 68z m105 -43 c64 -33 88
-102 55 -165 -21 -40 -53 -60 -98 -60 -101 0 -158 93 -107 175 20 33 70 64
103 65 10 0 31 -7 47 -15z"/>
<path d="M2326 582 l-39 -18 -1 -127 -1 -127 30 -14 c81 -38 132 -28 194 39
48 52 59 96 36 151 -21 51 -42 73 -90 95 -50 23 -79 23 -129 1z m134 -51 c35
-24 58 -73 52 -111 -3 -18 -19 -46 -39 -66 -28 -28 -41 -34 -76 -34 -66 0 -68
4 -65 120 3 101 4 104 28 111 33 10 69 2 100 -20z"/>
</g>
</svg>
