<svg xmlns="http://www.w3.org/2000/svg" width="32" height="32" viewBox="0 0 32 32" version="1.1"><path d="" stroke="none" fill="#080404" fill-rule="evenodd"/><path d="M 25.560 6.750 L 27.349 9.500 25.694 8.144 L 24.039 6.787 19.495 9.450 L 14.952 12.113 15.630 13.211 L 16.309 14.309 15.119 13.573 L 13.928 12.838 8.888 16.072 L 3.847 19.307 4.321 21.119 L 4.795 22.930 2.897 23.533 C 1.854 23.864, 1 24.603, 1 25.174 L 1 26.214 2.750 25.466 C 3.712 25.054, 5.625 24.615, 7 24.491 L 9.500 24.264 7.750 24.702 L 6 25.139 6 26.595 L 6 28.051 18.500 27.934 L 31 27.816 31 25.908 L 31 24 29.594 24 L 28.187 24 28.710 22 L 29.233 20 27 20 L 24.767 20 25.290 22 L 25.813 24 23.607 24 L 21.402 24 21.810 20.500 L 22.219 17 17.859 16.985 L 13.500 16.969 15 16.008 L 16.500 15.046 18.297 15.605 L 20.095 16.165 23.797 13.340 C 25.834 11.786, 28.063 10.644, 28.750 10.801 C 29.438 10.959, 30 10.800, 30 10.448 C 30 9.177, 25.839 4, 24.817 4 L 23.770 4 25.560 6.750" stroke="none" fill="#040404" fill-rule="evenodd"/></svg>