<?xml version="1.0" standalone="no"?>
<!DOCTYPE svg PUBLIC "-//W3C//DTD SVG 20010904//EN"
 "http://www.w3.org/TR/2001/REC-SVG-20010904/DTD/svg10.dtd">
<svg version="1.0" xmlns="http://www.w3.org/2000/svg"
 width="1307.000000pt" height="1024.000000pt" viewBox="0 0 1307.000000 1024.000000"
 preserveAspectRatio="xMidYMid meet">
<metadata>
Created by potrace 1.10, written by Peter Selinger 2001-2011
</metadata>
<g transform="translate(0.000000,1024.000000) scale(0.050000,-0.050000)"
fill="#000000" stroke="none">
<path d="M8940 20441 c-16 -11 -52 -15 -80 -10 -49 9 -48 8 5 -17 43 -20 50
-31 31 -50 -19 -19 -19 -24 0 -24 21 0 27 13 23 52 -1 6 15 24 35 39 41 31 31
38 -14 10z"/>
<path d="M6240 20106 c-193 -71 -159 -161 340 -907 481 -721 585 -831 719
-760 141 76 100 181 -319 811 -526 792 -620 900 -740 856z"/>
<path d="M8947 19596 c-27 -44 -24 -113 5 -124 46 -18 60 50 17 81 -33 24 -26
36 17 29 10 -2 11 6 4 18 -16 26 -24 25 -43 -4z"/>
<path d="M4990 18810 c-583 -369 -1071 -686 -1085 -706 -73 -107 312 -684 457
-684 54 0 139 -46 188 -101 91 -101 275 -128 424 -60 136 62 639 450 1342
1036 l345 288 -44 74 c-126 208 -538 823 -551 823 -9 0 -493 -302 -1076 -670z
m1195 130 c223 -331 235 -279 -135 -593 -645 -546 -1121 -887 -1240 -886 -266
1 -777 493 -605 581 25 12 95 61 156 108 183 142 1604 1032 1638 1026 17 -3
101 -109 186 -236z"/>
<path d="M3204 17690 c-234 -148 -575 -370 -757 -493 l-331 -224 10 -74 c22
-168 231 -595 313 -638 18 -10 219 -25 447 -33 l414 -14 0 501 0 500 330 8
c193 5 338 17 350 29 21 21 -301 692 -336 702 -8 2 -206 -117 -440 -264z m395
-114 c79 -84 56 -109 -110 -122 -175 -13 -218 -36 -329 -176 l-80 -102 0 -313
c-1 -444 24 -407 -271 -400 -281 8 -291 13 -374 183 -96 196 -93 204 134 358
109 75 221 157 250 183 59 55 281 198 281 181 0 -6 24 8 53 31 29 22 60 41 70
41 9 0 82 41 161 90 168 104 162 103 215 46z"/>
<path d="M3559 16965 c0 -8 0 -233 1 -500 l1 -485 -500 0 -501 0 0 -500 0
-500 -496 0 -496 0 -1 -370 0 -370 1633 0 1633 0 -72 145 c-189 385 18 940
388 1039 133 35 129 13 132 818 l3 728 -862 5 c-474 3 -862 -1 -863 -10z
m1489 -237 c20 -52 14 -1021 -7 -1076 -11 -27 -47 -65 -82 -83 -268 -138 -464
-481 -479 -838 l-10 -241 -1335 -5 -1335 -5 0 130 0 130 339 0 c398 0 409 3
529 151 l92 113 0 349 c0 442 -34 407 390 407 372 0 390 5 520 139 l80 83 5
344 c3 189 10 364 16 389 l10 45 627 0 c554 0 629 -4 640 -32z"/>
<path d="M1687 16728 c-446 -252 -558 -392 -556 -696 2 -276 82 -467 304 -727
l55 -64 410 -2 410 -2 -6 337 c-6 391 -10 405 -164 658 -65 106 -150 275 -190
375 -94 235 -76 227 -263 121z m88 -273 c10 -14 50 -83 87 -155 37 -71 96
-177 132 -234 65 -103 66 -106 66 -355 l0 -251 -211 0 c-253 0 -298 19 -388
159 -157 244 -170 521 -31 654 145 139 310 226 345 182z"/>
<path d="M6464 16159 c-346 -173 -427 -719 -106 -719 26 0 107 -33 179 -73
l131 -73 81 47 c45 26 135 66 201 89 324 112 237 571 -142 749 -120 56 -200
52 -344 -20z m317 -229 c165 -121 170 -238 14 -317 -130 -65 -115 -66 -269 8
l-128 60 6 83 c12 167 239 267 377 166z"/>
<path d="M928 15327 c-143 -103 -296 -176 -493 -236 l-175 -53 0 -105 c0 -201
78 -214 439 -71 423 167 515 253 434 407 -72 138 -87 142 -205 58z"/>
<path d="M5354 15219 c-607 -147 -556 -925 64 -972 l163 -13 -76 158 c-101
213 -108 444 -19 644 85 189 57 228 -132 183z"/>
<path d="M6097 15224 c-84 -10 -260 -127 -331 -220 -354 -466 338 -1040 737
-611 304 328 32 885 -406 831z m152 -272 c250 -105 181 -472 -89 -472 -308 0
-368 362 -79 478 68 27 90 26 168 -6z"/>
<path d="M7003 15182 c-162 -56 -174 -75 -144 -220 25 -116 20 -386 -10 -536
-15 -74 112 -156 276 -178 260 -36 535 212 535 482 0 337 -330 565 -657 452z
m271 -243 c258 -98 168 -459 -114 -459 -70 0 -72 7 -64 272 l7 208 57 0 c32 0
83 -10 114 -21z"/>
</g>
</svg>
