<svg xmlns="http://www.w3.org/2000/svg" width="192" height="192" viewBox="0 0 192 192" version="1.1"><path d="" stroke="none" fill="#080404" fill-rule="evenodd"/><path d="M 149.200 26.200 C 148.540 26.860, 148 28.110, 148 28.979 C 148 29.847, 153.287 38.419, 159.750 48.029 C 169.579 62.644, 171.939 65.551, 174.183 65.810 C 176.069 66.028, 177.191 65.511, 177.962 64.071 C 179.353 61.472, 178.573 60.009, 165.234 40.226 C 157.012 28.032, 154.513 25, 152.684 25 C 151.428 25, 149.860 25.540, 149.200 26.200 M 121.500 56.025 C 107.750 64.725, 95.834 72.260, 95.020 72.768 C 93.286 73.852, 94.080 76.089, 99.274 84.750 C 101.788 88.942, 102.950 90, 105.037 90 C 106.533 90, 108.656 91.070, 110 92.500 C 111.782 94.397, 113.362 95, 116.548 95 C 120.472 95, 122.062 93.948, 140.873 78.904 C 151.943 70.051, 161 62.386, 161 61.871 C 161 60.963, 147.186 39.895, 146.728 40.104 C 146.602 40.161, 135.250 47.325, 121.500 56.025 M 69.500 88.636 C 59.600 94.922, 51.367 100.659, 51.206 101.383 C 50.811 103.150, 54.606 112.638, 57.120 116.168 C 59.113 118.967, 59.256 119, 69.568 119 L 80 119 80 107 L 80 95 87.941 95 C 92.309 95, 96.163 94.545, 96.507 93.989 C 96.850 93.433, 95.579 90.396, 93.683 87.239 C 91.786 84.083, 89.926 80.487, 89.549 79.250 C 89.173 78.013, 88.558 77.046, 88.183 77.103 C 87.807 77.159, 79.400 82.349, 69.500 88.636 M 86 113 L 86 125 74 125 L 62 125 62 137 L 62 149 50 149 L 38 149 38 158 L 38 167 77.451 167 L 116.902 167 114.973 162.750 C 112.464 157.222, 112.503 152.657, 115.107 147.279 C 117.259 142.834, 123.055 138, 126.232 138 C 127.859 138, 128 136.524, 128 119.500 L 128 101 107 101 L 86 101 86 113 M 37.908 108.511 C 28.952 114.315, 26.995 116.990, 27.022 123.385 C 27.046 129.088, 29.310 134.864, 33.434 139.750 L 36.178 143 46.089 143 L 56 143 56 134.100 C 56 125.638, 55.833 124.953, 52.603 120.152 C 50.734 117.376, 48.409 112.943, 47.437 110.302 C 46.465 107.661, 45.406 105.216, 45.085 104.869 C 44.763 104.522, 41.533 106.161, 37.908 108.511 M 154.912 121.280 C 153.052 122.534, 150.967 124.672, 150.279 126.030 C 147.573 131.378, 149.528 137.990, 153.821 138.007 C 154.745 138.010, 156.796 138.868, 158.381 139.912 C 161.211 141.778, 161.316 141.778, 164.381 139.910 C 166.096 138.863, 168.272 138.006, 169.215 138.004 C 172.705 137.996, 174.189 130.908, 171.721 126.030 C 170.054 122.736, 164.356 119, 161 119 C 159.513 119, 156.773 120.026, 154.912 121.280 M 20.290 142.126 C 17.974 143.750, 13.791 145.623, 10.994 146.287 C 5.986 147.477, 5.913 147.548, 6.204 150.997 C 6.487 154.342, 6.658 154.487, 10 154.209 C 14.148 153.865, 27.903 147.417, 28.651 145.466 C 29.134 144.209, 26.134 138.993, 25 139.118 C 24.725 139.148, 22.605 140.502, 20.290 142.126 M 124.912 145.280 C 118.922 149.317, 117.304 155.907, 120.946 161.433 C 123.445 165.222, 126.592 166.920, 131.201 166.965 L 134.902 167 132.973 162.750 C 130.525 157.357, 130.492 152.420, 132.872 147.750 C 133.902 145.731, 134.502 143.835, 134.206 143.539 C 132.927 142.260, 128.034 143.176, 124.912 145.280 M 142.912 145.280 C 136.922 149.317, 135.304 155.907, 138.946 161.433 C 144.157 169.337, 155.507 168.773, 159.475 160.412 C 162.496 154.045, 160.262 147.738, 153.802 144.398 C 149.952 142.406, 146.797 142.662, 142.912 145.280 M 168.226 144.610 C 165.530 145.980, 165.089 146.646, 165.726 148.387 C 166.735 151.142, 166.719 158.898, 165.699 161.698 C 165.037 163.516, 165.416 164.164, 167.899 165.448 C 173.012 168.092, 177.726 167.474, 181.541 163.659 C 185.704 159.496, 186.649 155.992, 184.869 151.314 C 182.280 144.513, 174.549 141.399, 168.226 144.610" stroke="none" fill="#040404" fill-rule="evenodd"/></svg>